<?xml version="1.0" standalone="no"?>
<!DOCTYPE svg PUBLIC "-//W3C//DTD SVG 20010904//EN"
 "http://www.w3.org/TR/2001/REC-SVG-20010904/DTD/svg10.dtd">
<svg version="1.0" xmlns="http://www.w3.org/2000/svg"
 width="700.000000pt" height="700.000000pt" viewBox="0 0 700.000000 700.000000"
 preserveAspectRatio="xMidYMid meet">
<metadata>
Created by potrace 1.14, written by Peter Selinger 2001-2017
</metadata>
<g transform="translate(0.000000,700.000000) scale(0.100000,-0.100000)"
fill="#000000" stroke="none">
<path d="M3375 6981 c-110 -37 -196 -118 -236 -223 l-24 -63 -1 -3180 c0
-2531 2 -3190 12 -3229 18 -69 38 -106 85 -159 94 -108 243 -151 380 -111 125
37 208 116 255 244 15 41 16 304 17 3230 0 2930 -1 3190 -16 3241 -33 110
-127 210 -232 246 -68 23 -177 25 -240 4z"/>
<path d="M1822 6034 c-99 -20 -181 -75 -236 -158 -68 -102 -63 59 -64 -2349 0
-2275 0 -2244 41 -2323 46 -88 154 -170 254 -192 48 -11 143 -7 192 9 108 33
204 128 240 237 l21 62 -2 2223 -3 2222 -32 66 c-76 153 -245 237 -411 203z"/>
<path d="M4951 6033 c-135 -34 -224 -115 -272 -246 -19 -50 -19 -110 -16
-2277 l2 -2225 32 -65 c17 -36 42 -76 55 -90 113 -123 292 -159 445 -89 67 31
153 122 183 195 l25 59 3 2185 c3 1648 0 2202 -9 2254 -18 108 -69 186 -162
247 -84 55 -196 75 -286 52z"/>
<path d="M6550 4659 c-112 -21 -228 -117 -272 -227 l-23 -57 -3 -845 c-2 -622
0 -860 9 -900 53 -250 333 -372 556 -243 57 33 120 104 151 171 l27 57 0 885
0 885 -32 65 c-78 158 -241 241 -413 209z"/>
<path d="M263 4256 c-126 -41 -213 -128 -248 -249 -14 -48 -15 -120 -13 -555
l3 -499 35 -69 c26 -51 50 -80 94 -116 69 -55 128 -77 220 -82 164 -9 297 71
370 224 21 44 21 55 21 565 l0 520 -32 66 c-39 79 -102 141 -180 176 -69 32
-203 41 -270 19z"/>
</g>
</svg>
