<svg xmlns="http://www.w3.org/2000/svg" version="1.1" id="svg34" width="663.57" height="150"><defs id="defs4"><style id="style2">.cls-1{fill:#1377ff}</style></defs><g id="Layer_2" data-name="Layer 2"><g id="Layer_1-2" data-name="Layer 1"><rect class="cls-1" y="58.5" width="16" height="34" rx="7.75" id="rect6" x="0" style="fill:#4f46e5;fill-opacity:1"/><rect class="cls-1" x="32.5" y="20.5" width="16" height="108" rx="8" id="rect8" style="fill:#4f46e5;fill-opacity:1"/><rect class="cls-1" x="66.5" width="16" height="150" rx="8" id="rect10" y="0" style="fill:#4f46e5;fill-opacity:1"/><rect class="cls-1" x="99.5" y="20.5" width="16" height="108" rx="8" id="rect12" style="fill:#4f46e5;fill-opacity:1"/><rect class="cls-1" x="133.5" y="50" width="16" height="50" rx="8" id="rect14" style="fill:#4f46e5;fill-opacity:1"/><path class="cls-1" d="M217.2 103.56a30.42 30.42 0 0 1-9.28-1.3 25.69 25.69 0 0 1-7-3.42 22.3 22.3 0 0 1-5-4.88 23.35 23.35 0 0 1-3.15-5.59l12.6-5.37a13.8 13.8 0 0 0 4.94 6.13 12.45 12.45 0 0 0 6.89 2 11.7 11.7 0 0 0 6.19-1.41q2.28-1.41 2.28-3.36a4.18 4.18 0 0 0-1.9-3.53 19.75 19.75 0 0 0-6.57-2.44l-7.49-1.63a26.45 26.45 0 0 1-5.15-1.76 20.42 20.42 0 0 1-4.83-3 15.46 15.46 0 0 1-3.58-4.45 12.57 12.57 0 0 1-1.41-6.07 14.13 14.13 0 0 1 1.68-7 15.64 15.64 0 0 1 4.58-5.16 22 22 0 0 1 6.88-3.26 30.68 30.68 0 0 1 8.52-1.14 29.88 29.88 0 0 1 13.56 3 18.36 18.36 0 0 1 8.79 9.49l-12.26 5a9.4 9.4 0 0 0-4.45-4.56 13.52 13.52 0 0 0-5.86-1.41 10.91 10.91 0 0 0-5.31 1.25 3.66 3.66 0 0 0-2.28 3.2 3.27 3.27 0 0 0 1.9 2.93 21.26 21.26 0 0 0 5.15 2l8.14 2q8.15 2 12.1 6.24a14.45 14.45 0 0 1 4 10.14 14.15 14.15 0 0 1-1.63 6.62 17.66 17.66 0 0 1-4.61 5.59 22.6 22.6 0 0 1-7.16 3.85 28.92 28.92 0 0 1-9.28 1.3z" id="path16" style="fill:#4f46e5;fill-opacity:1"/><path class="cls-1" d="M274.27 46.92A29.62 29.62 0 0 1 285.61 49a26.3 26.3 0 0 1 14.76 14.81 31.8 31.8 0 0 1 0 22.78 26.22 26.22 0 0 1-14.76 14.81 31.39 31.39 0 0 1-22.68 0 26.24 26.24 0 0 1-14.75-14.81 31.66 31.66 0 0 1 0-22.78A26.32 26.32 0 0 1 262.93 49a29.62 29.62 0 0 1 11.34-2.08zm0 43.51a13.84 13.84 0 0 0 5.26-1 13.59 13.59 0 0 0 4.51-3 14.19 14.19 0 0 0 3.09-4.78 18.53 18.53 0 0 0 0-12.8 14.14 14.14 0 0 0-3.13-4.78 13.47 13.47 0 0 0-4.51-3 14.1 14.1 0 0 0-10.58 0 13.49 13.49 0 0 0-4.44 3 14 14 0 0 0-3.1 4.77 18.53 18.53 0 0 0 0 12.8 14.06 14.06 0 0 0 3.1 4.78 13.61 13.61 0 0 0 4.44 3 13.78 13.78 0 0 0 5.36 1.01z" id="path18" style="fill:#4f46e5;fill-opacity:1"/><path class="cls-1" d="M347.83 94.88H347a18 18 0 0 1-6.72 6.35 19.73 19.73 0 0 1-9.66 2.33q-10.08 0-15-6.18t-4.93-16.5V48.66h14.21v30.49q0 5.75 2.55 8.52 2.55 2.77 7.43 2.76a10.3 10.3 0 0 0 5.12-1.25 12.17 12.17 0 0 0 3.8-3.36 15.3 15.3 0 0 0 2.38-5 22.15 22.15 0 0 0 .82-6.12v-26h14.22v53.16h-13.39z" id="path20" style="fill:#4f46e5;fill-opacity:1"/><path class="cls-1" d="M386.68 55.6h.86a18.07 18.07 0 0 1 6.73-6.34 19.62 19.62 0 0 1 9.66-2.34 22.3 22.3 0 0 1 8.79 1.63 16.06 16.06 0 0 1 6.28 4.61 20.34 20.34 0 0 1 3.69 7.16 32.45 32.45 0 0 1 1.25 9.28v32.22h-14.26V71.34q0-5.76-2.55-8.52t-7.43-2.77a10.37 10.37 0 0 0-5.16 1.25 12.06 12.06 0 0 0-3.8 3.36 15.39 15.39 0 0 0-2.38 5 22.15 22.15 0 0 0-.82 6.13v26h-14.21V48.66h13.35z" id="path22" style="fill:#4f46e5;fill-opacity:1"/><path class="cls-1" d="M475.21 95.42h-.87a16.09 16.09 0 0 1-6.07 5.75 20.1 20.1 0 0 1-10.2 2.39 23 23 0 0 1-9.71-2.12 26 26 0 0 1-8.14-5.85 27.77 27.77 0 0 1-5.59-9 32.52 32.52 0 0 1 0-22.78 27.73 27.73 0 0 1 5.59-9 25.82 25.82 0 0 1 8.14-5.81 23 23 0 0 1 9.71-2.12 20.1 20.1 0 0 1 10.2 2.39 16.17 16.17 0 0 1 6.07 5.75h.87l-.87-7.59V24.14h14.22v77.68h-13.35zm-14.21-5a14.14 14.14 0 0 0 5.37-1 13.45 13.45 0 0 0 4.5-3 15 15 0 0 0 3.13-4.78 17.81 17.81 0 0 0 0-12.8 14.91 14.91 0 0 0-3.15-4.77 13.33 13.33 0 0 0-4.5-3 14.33 14.33 0 0 0-5.37-1 13.46 13.46 0 0 0-5.37 1.09 14.21 14.21 0 0 0-4.51 3A14.88 14.88 0 0 0 448 69a17.09 17.09 0 0 0 0 12.58 14.66 14.66 0 0 0 3.14 4.78 14.41 14.41 0 0 0 4.51 3 13.63 13.63 0 0 0 5.35 1.07z" id="path24" style="fill:#4f46e5;fill-opacity:1"/><path class="cls-1" d="M521.22 103.56a30.33 30.33 0 0 1-9.28-1.3 25.55 25.55 0 0 1-7.05-3.42 22.35 22.35 0 0 1-5.05-4.84 23.65 23.65 0 0 1-3.14-5.59L509.39 83a13.73 13.73 0 0 0 4.94 6.13 12.42 12.42 0 0 0 6.89 2 11.68 11.68 0 0 0 6.18-1.41q2.28-1.41 2.28-3.36a4.18 4.18 0 0 0-1.9-3.53 19.68 19.68 0 0 0-6.56-2.44l-7.49-1.63a26.23 26.23 0 0 1-5.15-1.76 20 20 0 0 1-4.83-3 15.3 15.3 0 0 1-3.58-4.45 12.57 12.57 0 0 1-1.41-6.07 14.13 14.13 0 0 1 1.68-7 15.72 15.72 0 0 1 4.61-5.15 22.08 22.08 0 0 1 6.89-3.26 30.68 30.68 0 0 1 8.52-1.14 29.91 29.91 0 0 1 13.56 3 18.36 18.36 0 0 1 8.79 9.49l-12.26 5a9.48 9.48 0 0 0-4.45-4.56 13.55 13.55 0 0 0-5.86-1.41 10.92 10.92 0 0 0-5.32 1.25 3.66 3.66 0 0 0-2.28 3.2 3.29 3.29 0 0 0 1.9 2.93 21.52 21.52 0 0 0 5.16 2l8.13 2q8.14 2 12.1 6.24a14.45 14.45 0 0 1 4 10.14 14.15 14.15 0 0 1-1.63 6.62 17.66 17.66 0 0 1-4.61 5.59 22.49 22.49 0 0 1-7.16 3.85 28.81 28.81 0 0 1-9.31 1.29z" id="path26" style="fill:#4f46e5;fill-opacity:1"/><path class="cls-1" d="M552.57 24.14h14.22v42.31h.65l17.79-17.79h17.58v.87l-19.75 19.2L604.43 101v.86h-16.81L573.08 78.5l-6.29 6.18v17.14h-14.22z" id="path28" style="fill:#4f46e5;fill-opacity:1"/><path class="cls-1" d="m626.79 99.22-22.36-50.56h16.17l13.45 32.22h.76l12.92-32.22h15.84l-33.31 76.6H615Z" id="path30" style="fill:#4f46e5;fill-opacity:1"/></g></g></svg>